<mxfile host="app.diagrams.net" modified="2023-06-09T17:13:49.640Z" agent="Mozilla/5.0 (Windows NT 10.0; Win64; x64) AppleWebKit/537.36 (KHTML, like Gecko) Chrome/114.0.0.0 Safari/537.36" etag="0Gtr6vvph8hdWrETnJkk" version="21.3.8" type="device">
  <diagram id="prtHgNgQTEPvFCAcTncT" name="Page-1">
    <mxGraphModel dx="1050" dy="523" grid="1" gridSize="10" guides="1" tooltips="1" connect="1" arrows="1" fold="1" page="1" pageScale="1" pageWidth="827" pageHeight="1169" math="0" shadow="0">
      <root>
        <mxCell id="0" />
        <mxCell id="1" parent="0" />
        <mxCell id="EI1bmq1NkInxOzMBn1pc-1" value="Sleeping" style="ellipse;whiteSpace=wrap;html=1;aspect=fixed;" parent="1" vertex="1">
          <mxGeometry x="158" y="290" width="80" height="80" as="geometry" />
        </mxCell>
        <mxCell id="EI1bmq1NkInxOzMBn1pc-4" value="" style="endArrow=classic;html=1;rounded=0;" parent="1" target="EI1bmq1NkInxOzMBn1pc-1" edge="1">
          <mxGeometry width="50" height="50" relative="1" as="geometry">
            <mxPoint x="158" y="300" as="sourcePoint" />
            <mxPoint x="138" y="220" as="targetPoint" />
          </mxGeometry>
        </mxCell>
        <mxCell id="EI1bmq1NkInxOzMBn1pc-5" value="" style="endArrow=none;dashed=1;html=1;rounded=0;" parent="1" edge="1">
          <mxGeometry width="50" height="50" relative="1" as="geometry">
            <mxPoint x="38" y="230" as="sourcePoint" />
            <mxPoint x="158" y="300" as="targetPoint" />
          </mxGeometry>
        </mxCell>
        <mxCell id="EI1bmq1NkInxOzMBn1pc-20" value="Listening" style="ellipse;whiteSpace=wrap;html=1;aspect=fixed;" parent="1" vertex="1">
          <mxGeometry x="508" y="290" width="80" height="80" as="geometry" />
        </mxCell>
        <mxCell id="EI1bmq1NkInxOzMBn1pc-21" value="" style="curved=1;endArrow=classic;html=1;rounded=0;exitX=1;exitY=0;exitDx=0;exitDy=0;entryX=0;entryY=0;entryDx=0;entryDy=0;" parent="1" source="EI1bmq1NkInxOzMBn1pc-1" target="EI1bmq1NkInxOzMBn1pc-20" edge="1">
          <mxGeometry width="50" height="50" relative="1" as="geometry">
            <mxPoint x="278" y="330" as="sourcePoint" />
            <mxPoint x="328" y="280" as="targetPoint" />
            <Array as="points">
              <mxPoint x="310" y="220" />
            </Array>
          </mxGeometry>
        </mxCell>
        <mxCell id="EI1bmq1NkInxOzMBn1pc-22" value="Start service period (every&amp;nbsp;TimeBetweenTwoAppointment)" style="text;html=1;strokeColor=none;fillColor=none;align=center;verticalAlign=middle;whiteSpace=wrap;rounded=0;" parent="1" vertex="1">
          <mxGeometry x="288" y="180" width="140" height="30" as="geometry" />
        </mxCell>
        <mxCell id="EI1bmq1NkInxOzMBn1pc-23" value="" style="endArrow=none;html=1;rounded=0;entryX=0.832;entryY=0.01;entryDx=0;entryDy=0;entryPerimeter=0;exitX=0.198;exitY=0.033;exitDx=0;exitDy=0;exitPerimeter=0;" parent="1" source="EI1bmq1NkInxOzMBn1pc-24" target="EI1bmq1NkInxOzMBn1pc-24" edge="1">
          <mxGeometry width="50" height="50" relative="1" as="geometry">
            <mxPoint x="318" y="210" as="sourcePoint" />
            <mxPoint x="408" y="210" as="targetPoint" />
          </mxGeometry>
        </mxCell>
        <mxCell id="EI1bmq1NkInxOzMBn1pc-24" value="Start MaxDurationSP&amp;nbsp;&lt;br&gt;Start MinTwtWakeDuration&lt;br&gt;socket.recv()" style="text;html=1;strokeColor=none;fillColor=none;align=center;verticalAlign=middle;whiteSpace=wrap;rounded=0;" parent="1" vertex="1">
          <mxGeometry x="232" y="210" width="252" height="50" as="geometry" />
        </mxCell>
        <mxCell id="EI1bmq1NkInxOzMBn1pc-40" value="" style="curved=1;endArrow=classic;html=1;rounded=0;entryX=0.5;entryY=1;entryDx=0;entryDy=0;exitX=0;exitY=1;exitDx=0;exitDy=0;" parent="1" source="EI1bmq1NkInxOzMBn1pc-78" target="EI1bmq1NkInxOzMBn1pc-1" edge="1">
          <mxGeometry width="50" height="50" relative="1" as="geometry">
            <mxPoint x="430" y="555" as="sourcePoint" />
            <mxPoint x="199.81980515339455" y="586.8198051533946" as="targetPoint" />
            <Array as="points">
              <mxPoint x="310" y="640" />
            </Array>
          </mxGeometry>
        </mxCell>
        <mxCell id="EI1bmq1NkInxOzMBn1pc-41" value="Timeout MaxDurationSP or&amp;nbsp;&lt;br&gt;(Timeout MinTwtWakeDuration and&lt;br&gt;Has receive EOSP or NDP and&lt;br&gt;There is no frame to send)" style="text;html=1;strokeColor=none;fillColor=none;align=center;verticalAlign=middle;whiteSpace=wrap;rounded=0;" parent="1" vertex="1">
          <mxGeometry x="90" y="510" width="198" height="40" as="geometry" />
        </mxCell>
        <mxCell id="EI1bmq1NkInxOzMBn1pc-42" value="" style="endArrow=none;html=1;rounded=0;" parent="1" edge="1">
          <mxGeometry width="50" height="50" relative="1" as="geometry">
            <mxPoint x="104" y="560" as="sourcePoint" />
            <mxPoint x="274" y="560" as="targetPoint" />
          </mxGeometry>
        </mxCell>
        <mxCell id="EI1bmq1NkInxOzMBn1pc-69" value="Has receive frame" style="text;html=1;strokeColor=none;fillColor=none;align=center;verticalAlign=middle;whiteSpace=wrap;rounded=0;" parent="1" vertex="1">
          <mxGeometry x="600" y="405" width="100" height="30" as="geometry" />
        </mxCell>
        <mxCell id="EI1bmq1NkInxOzMBn1pc-70" value="" style="endArrow=none;html=1;rounded=0;entryX=1;entryY=1;entryDx=0;entryDy=0;" parent="1" target="EI1bmq1NkInxOzMBn1pc-69" edge="1">
          <mxGeometry width="50" height="50" relative="1" as="geometry">
            <mxPoint x="600" y="435" as="sourcePoint" />
            <mxPoint x="610" y="435" as="targetPoint" />
            <Array as="points">
              <mxPoint x="630" y="435" />
            </Array>
          </mxGeometry>
        </mxCell>
        <mxCell id="EI1bmq1NkInxOzMBn1pc-71" value="Processing()&lt;br&gt;Restart MinTwtWakeDuration" style="text;html=1;strokeColor=none;fillColor=none;align=center;verticalAlign=middle;whiteSpace=wrap;rounded=0;" parent="1" vertex="1">
          <mxGeometry x="540" y="435" width="220" height="30" as="geometry" />
        </mxCell>
        <mxCell id="EI1bmq1NkInxOzMBn1pc-78" value="Transmitting" style="ellipse;whiteSpace=wrap;html=1;aspect=fixed;" parent="1" vertex="1">
          <mxGeometry x="450" y="470" width="80" height="80" as="geometry" />
        </mxCell>
        <mxCell id="EI1bmq1NkInxOzMBn1pc-79" value="" style="curved=1;endArrow=classic;html=1;rounded=0;entryX=1;entryY=0;entryDx=0;entryDy=0;exitX=1;exitY=1;exitDx=0;exitDy=0;" parent="1" source="EI1bmq1NkInxOzMBn1pc-20" target="EI1bmq1NkInxOzMBn1pc-78" edge="1">
          <mxGeometry width="50" height="50" relative="1" as="geometry">
            <mxPoint x="588.2842712474621" y="508.28427124746213" as="sourcePoint" />
            <mxPoint x="608" y="680" as="targetPoint" />
            <Array as="points">
              <mxPoint x="570" y="450" />
            </Array>
          </mxGeometry>
        </mxCell>
        <mxCell id="EI1bmq1NkInxOzMBn1pc-80" value="" style="curved=1;endArrow=classic;html=1;rounded=0;entryX=0.5;entryY=0;entryDx=0;entryDy=0;exitX=0;exitY=1;exitDx=0;exitDy=0;" parent="1" source="EI1bmq1NkInxOzMBn1pc-20" target="EI1bmq1NkInxOzMBn1pc-78" edge="1">
          <mxGeometry width="50" height="50" relative="1" as="geometry">
            <mxPoint x="520" y="480" as="sourcePoint" />
            <mxPoint x="400" y="450" as="targetPoint" />
            <Array as="points">
              <mxPoint x="480" y="410" />
            </Array>
          </mxGeometry>
        </mxCell>
        <mxCell id="EI1bmq1NkInxOzMBn1pc-81" value="Timeout socket" style="text;html=1;strokeColor=none;fillColor=none;align=center;verticalAlign=middle;whiteSpace=wrap;rounded=0;" parent="1" vertex="1">
          <mxGeometry x="390" y="399" width="110" height="30" as="geometry" />
        </mxCell>
        <mxCell id="EI1bmq1NkInxOzMBn1pc-82" value="" style="endArrow=none;html=1;rounded=0;entryX=1;entryY=1;entryDx=0;entryDy=0;" parent="1" edge="1">
          <mxGeometry width="50" height="50" relative="1" as="geometry">
            <mxPoint x="400" y="429" as="sourcePoint" />
            <mxPoint x="490" y="429" as="targetPoint" />
          </mxGeometry>
        </mxCell>
        <mxCell id="OI8WBqlIXhOjE8QQi_Tn-2" value="" style="curved=1;endArrow=classic;html=1;rounded=0;exitX=1;exitY=1;exitDx=0;exitDy=0;entryX=1;entryY=0.5;entryDx=0;entryDy=0;" parent="1" source="EI1bmq1NkInxOzMBn1pc-78" target="EI1bmq1NkInxOzMBn1pc-20" edge="1">
          <mxGeometry width="50" height="50" relative="1" as="geometry">
            <mxPoint x="430" y="470" as="sourcePoint" />
            <mxPoint x="740" y="300" as="targetPoint" />
            <Array as="points">
              <mxPoint x="680" y="570" />
              <mxPoint x="830" y="470" />
              <mxPoint x="720" y="310" />
            </Array>
          </mxGeometry>
        </mxCell>
        <mxCell id="OI8WBqlIXhOjE8QQi_Tn-4" value="" style="endArrow=none;html=1;rounded=0;" parent="1" edge="1">
          <mxGeometry width="50" height="50" relative="1" as="geometry">
            <mxPoint x="630" y="290" as="sourcePoint" />
            <mxPoint x="820" y="290" as="targetPoint" />
          </mxGeometry>
        </mxCell>
        <mxCell id="OI8WBqlIXhOjE8QQi_Tn-5" value="socket.send(data frame)&lt;br&gt;if there is a frame to send&lt;br&gt;socket.recv()" style="text;html=1;strokeColor=none;fillColor=none;align=center;verticalAlign=middle;whiteSpace=wrap;rounded=0;" parent="1" vertex="1">
          <mxGeometry x="627" y="290" width="200" height="50" as="geometry" />
        </mxCell>
        <mxCell id="OI8WBqlIXhOjE8QQi_Tn-12" value="Automate Station" style="text;html=1;strokeColor=none;fillColor=none;align=center;verticalAlign=middle;whiteSpace=wrap;rounded=0;fontStyle=1;fontSize=17;" parent="1" vertex="1">
          <mxGeometry x="250" y="20" width="200" height="30" as="geometry" />
        </mxCell>
        <mxCell id="Ak--juU8-PPNvUjxzlOO-2" value="&lt;div style=&quot;&quot;&gt;&lt;span style=&quot;background-color: initial;&quot;&gt;TimeBetweenTwoAppointment = 5 secondes&lt;/span&gt;&lt;/div&gt;MaxDurationSP = timer starting at TimeBetweenTwoAppointment -&amp;nbsp;ε&lt;br&gt;MinTwtWakeDuration = timer starting at 1 seconde&lt;br&gt;socket.recv() start a timer starting at 0.05 seconde while this timer is up socket.recv() is blocking" style="text;html=1;align=left;verticalAlign=middle;resizable=0;points=[];autosize=1;strokeColor=none;fillColor=none;" parent="1" vertex="1">
          <mxGeometry x="30" y="55" width="530" height="70" as="geometry" />
        </mxCell>
        <mxCell id="Ak--juU8-PPNvUjxzlOO-4" value="MaxDurationSP &amp;gt; 0 and&amp;nbsp;&lt;br&gt;MinTwtWakeDuration &amp;gt; 0" style="text;html=1;strokeColor=none;fillColor=none;align=center;verticalAlign=middle;whiteSpace=wrap;rounded=0;" parent="1" vertex="1">
          <mxGeometry x="629" y="250" width="186" height="30" as="geometry" />
        </mxCell>
        <mxCell id="biYDNo-Kc2bHteq5-zhx-1" value="" style="ellipse;whiteSpace=wrap;html=1;fillColor=none;dashed=1;" vertex="1" parent="1">
          <mxGeometry x="400" y="160" width="420" height="480" as="geometry" />
        </mxCell>
        <mxCell id="biYDNo-Kc2bHteq5-zhx-2" value="Service Period" style="text;html=1;strokeColor=none;fillColor=none;align=center;verticalAlign=middle;whiteSpace=wrap;rounded=0;fontStyle=1" vertex="1" parent="1">
          <mxGeometry x="550" y="180" width="100" height="30" as="geometry" />
        </mxCell>
      </root>
    </mxGraphModel>
  </diagram>
</mxfile>
